<svg width="30" height="28" viewBox="0 0 30 28" fill="none" xmlns="http://www.w3.org/2000/svg">
<path d="M24 28.0002C25.1046 28.0002 26 27.1048 26 26.0002C26 24.8956 25.1046 24.0002 24 24.0002C22.8954 24.0002 22 24.8956 22 26.0002C22 27.1048 22.8954 28.0002 24 28.0002Z" fill="#1D5564"/>
<path d="M10 28.0002C11.1046 28.0002 12 27.1048 12 26.0002C12 24.8956 11.1046 24.0002 10 24.0002C8.89543 24.0002 8 24.8956 8 26.0002C8 27.1048 8.89543 28.0002 10 28.0002Z" fill="#1D5564"/>
<path d="M28 5.0002H5.82L5 0.800203C4.95325 0.570928 4.82758 0.365306 4.64486 0.219131C4.46214 0.0729566 4.23395 -0.00451449 4 0.000203439H0V2.0002H3.18L7 21.2002C7.04675 21.4295 7.17242 21.6351 7.35514 21.7813C7.53786 21.9275 7.76605 22.0049 8 22.0002H26V20.0002H8.82L8 16.0002H26C26.2312 16.0059 26.4571 15.9312 26.6395 15.789C26.8218 15.6468 26.9492 15.4458 27 15.2202L29 6.2202C29.0335 6.07183 29.0327 5.91776 28.9977 5.76974C28.9627 5.62171 28.8944 5.48362 28.798 5.36597C28.7015 5.24833 28.5795 5.15424 28.4413 5.09085C28.303 5.02747 28.1521 4.99647 28 5.0002ZM25.2 14.0002H7.62L6.22 7.0002H26.75L25.2 14.0002Z" fill="#1D5564"/>
</svg>
